# xmcd CD database file
#
# Track frame offsets:
#	187
#	30535
#	52390
#	72275
#	85112
#	109777
#	128762
#	147882
#	165565
#	186497
#	203330
#	244967
#
# Disc length: 3576 seconds
#
# Revision: 0
# Processed by: cddbd v1.5.1PL2 Copyright (c) Steve Scherf et al.
# Submitted via: CDex 1.51
#
DISCID=a90df60c
DTITLE=Bill Evans - Round Midnight 〜 The Best of Bill Evans
DYEAR=1997
DGENRE=Jazz
TTITLE0='Round Midnight
TTITLE1=Israel
TTITLE2=Elsa
TTITLE3=How My Heart Sings
TTITLE4=Come Rain or Come Shine
TTITLE5=Stella by Starlight
TTITLE6=I'm Getting Sentimental Over You
TTITLE7=Little LULU
TTITLE8=Dancing in The Dark
TTITLE9=Danny Boy
TTITLE10=With a Song in My Heart
TTITLE11=Goodbye
EXTD=YEAR: 1997
EXTT0=
EXTT1=
EXTT2=
EXTT3=
EXTT4=
EXTT5=
EXTT6=
EXTT7=
EXTT8=
EXTT9=
EXTT10=
EXTT11=
PLAYORDER=
